<?xml version="1.0" encoding="iso-8859-1"?>
<!-- Uploaded to: SVG Repo, www.svgrepo.com, Generator: SVG Repo Mixer Tools -->
<svg fill="#000000" version="1.1" id="Layer_1" xmlns="http://www.w3.org/2000/svg" xmlns:xlink="http://www.w3.org/1999/xlink" 
	 viewBox="0 0 415.997 415.997" xml:space="preserve">
<g>
	<g>
		<path d="M380.001,203.999c-6.628,0-12,5.372-12,12v120c0,2.168-1.832,4-4,4h-312c-2.168,0-4-1.832-4-4v-128
			c0-6.628-5.372-12-12-12s-12,5.372-12,12v128c0,15.436,12.56,28,28,28h312c15.44,0,28-12.56,28-28v-120
			C392.001,209.371,386.629,203.999,380.001,203.999z"/>
	</g>
</g>
<g>
	<g>
		<path d="M348.001,131.999h-272c-6.628,0-12,5.372-12,12s5.372,12,12,12h272c6.628,0,12-5.372,12-12
			S354.629,131.999,348.001,131.999z"/>
	</g>
</g>
<g>
	<g>
		<path d="M410.273,125.011l-31.5-93.672c-4.48-13.304-18.436-23.34-32.476-23.34H73.873c-13.884,0-27.988,9.82-32.804,22.844
			L6.297,124.827c-2.836,7.672-2.04,15.548,2.188,21.62c4.224,6.072,11.34,9.552,19.516,9.552h360
			c8.104,0,15.232-3.444,19.544-9.452C411.861,140.543,412.857,132.691,410.273,125.011z M29.233,131.999l34.344-92.828
			c1.312-3.556,6.508-7.172,10.296-7.172h272.424c3.652,0,8.564,3.528,9.728,6.988l31.28,93.012H29.233z"/>
	</g>
</g>
<g>
	<g>
		<path d="M340.001,203.999c-4.416,0-8,3.58-8,8v100h-132v-112c0-4.42-3.584-8-8-8s-8,3.58-8,8v120c0,4.416,3.584,8,8,8h148
			c4.416,0,8-3.58,8-8v-108C348.001,207.579,344.417,203.999,340.001,203.999z"/>
	</g>
</g>
<g>
	<g>
		
			<rect x="224.112" y="263.997" transform="matrix(0.7071 -0.7071 0.7071 0.7071 -106.8076 286.1366)" width="135.763" height="16"/>
	</g>
</g>
<g>
	<g>
		<path d="M156.001,203.999c-4.416,0-8,3.58-8,8v128h-64v-128c0-4.42-3.584-8-8-8s-8,3.58-8,8v136c0,4.416,3.584,8,8,8h80
			c4.416,0,8-3.58,8-8v-136C164.001,207.579,160.417,203.999,156.001,203.999z"/>
	</g>
</g>
<g>
	<g>
		<path d="M404.001,131.999h-392c-4.416,0-8,3.58-8,8v24c0,1.324,0.324,2.576,0.892,3.672c2.364,29.164,27.092,52.328,56.692,52.328
			c20.516,0,37.836-10.912,47.124-27.784c10.588,16.48,29.668,27.784,50.712,27.784c20.528,0,38.704-11.544,48.628-28.66
			c10.04,17.116,28.432,28.66,49.204,28.66c20.88,0,39.808-11.392,50.256-27.972c9.516,16.84,27.16,27.972,47.576,27.972
			c30.472,0,55.776-24.548,56.84-54.912c0.052-0.352,0.076-0.716,0.076-1.088v-24C412.001,135.579,408.417,131.999,404.001,131.999z
			 M395.997,163.127c-0.024,0.24-0.04,0.48-0.044,0.724c-0.408,22.136-18.744,40.148-40.872,40.148
			c-21.856,0-38.66-17.26-39.084-40.148c-0.08-4.36-3.636-7.852-7.996-7.852s-7.916,3.492-7.996,7.852
			c-0.404,21.76-19.98,40.148-42.752,40.148c-21.94,0-40.832-19.016-41.252-41.524c-0.08-4.36-3.636-7.852-7.996-7.852
			c-4.364,0-7.92,3.492-8,7.852c-0.424,22.896-18.632,41.524-40.584,41.524c-23.132,0-43.016-18.388-43.42-40.148
			c-0.084-4.36-3.636-7.852-8-7.852s-7.92,3.492-8,7.852c-0.424,22.888-16.94,40.148-38.42,40.148
			c-22.124,0-40.456-18.012-40.868-40.148c-0.02-1.124-0.272-2.196-0.712-3.16v-12.692h375.996V163.127z"/>
	</g>
</g>
<g>
	<g>
		<path d="M208.001,11.999c-4.416,0-8,3.584-8,8v141.144c0,4.416,3.584,8,8,8c4.416,0,8-3.58,8-8V19.999
			C216.001,15.583,212.417,11.999,208.001,11.999z"/>
	</g>
</g>
<g>
	<g>
		<path d="M315.777,133.835l-28-115.716c-1.04-4.296-5.376-6.936-9.656-5.896c-4.296,1.04-6.936,5.364-5.896,9.66l27.776,114.784
			v28.188c0,4.416,3.584,8,8,8c4.416,0,8-3.584,8-8v-29.14C316.001,135.083,315.925,134.447,315.777,133.835z"/>
	</g>
</g>
<g>
	<g>
		<path d="M142.133,12.291c-4.264-1.164-8.668,1.32-9.844,5.576l-32,115.716c-0.192,0.696-0.288,1.412-0.288,2.132v40.284
			c0,4.416,3.584,8,8,8s8-3.58,8-8v-39.2l31.712-114.664C148.889,17.875,146.389,13.471,142.133,12.291z"/>
	</g>
</g>
<g>
	<g>
		<path d="M404.001,347.999h-392c-4.416,0-8,3.584-8,8v44c0,4.416,3.584,8,8,8h392c4.416,0,8-3.58,8-8v-44
			C412.001,351.583,408.417,347.999,404.001,347.999z M396.001,391.999h-376v-28h376V391.999z"/>
	</g>
</g>
<g>
	<g>
		<path d="M415.913,165.399c0.056-0.464,0.084-0.932,0.084-1.408v-24c0-1.352-0.232-2.692-0.676-3.964L378.705,31.419
			c-4.412-13.352-16.64-23.42-30.704-23.42h-276c-13.912,0-26.12,9.86-30.792,22.724L0.801,135.683
			c-0.572,1.488-0.844,3.076-0.796,4.668l0.712,23.864c0.36,19.532,9.844,40.032,23.284,51.56v124.224h-12c-6.628,0-12,5.372-12,12
			v44c0,6.628,5.372,12,12,12h392c6.628,0,12-5.372,11.996-12.008v-44c0-6.628-5.368-11.992-11.996-11.992h-12l-0.004-123.832
			C405.725,204.883,415.197,185.139,415.913,165.399z M392.001,162.931c-0.024,0.28-0.04,0.564-0.044,0.844
			c-0.264,14.26-8.212,30.032-18.092,35.912c-3.636,2.164-5.864,6.08-5.864,10.312v142c0,6.628,5.372,12,12,12h12v20h-368v-20h12
			c6.628,0,12-9.372,12-16v-136c0-4.16-2.156-10.276-5.696-12.468c-9.604-5.928-17.328-21.636-17.592-35.896l-0.644-21.584
			l39.624-102.92c1.28-3.536,6.42-7.136,10.18-7.136h272.428c3.628,0,8.484,3.512,9.692,7.156l36.008,102.884V162.931z"/>
	</g>
</g>
<g>
	<g>
		<circle cx="132.001" cy="271.999" r="8"/>
	</g>
</g>
<g>
	<g>
		<path d="M316.045,183.095c-4.916-4.44-12.508-4.06-16.948,0.864l-112,124c-4.444,4.916-4.056,12.508,0.86,16.948
			c2.296,2.072,5.172,3.092,8.04,3.092c3.276,0,6.54-1.332,8.908-3.956l112-124C321.349,195.127,320.961,187.535,316.045,183.095z"
			/>
	</g>
</g>
</svg>